<svg xmlns="http://www.w3.org/2000/svg" xmlns:xlink="http://www.w3.org/1999/xlink" width="1920" height="400" viewBox="0 0 1920 400"><defs><clipPath id="b"><rect width="1920" height="400"></rect></clipPath></defs><g id="a" clip-path="url(#b)"><rect width="1920" height="400" fill="#fff"></rect><g transform="translate(-146.125 29.111)"><path d="M-4432.629,7518.689s472.732-73.672,837,167.81,297.248,258.366,626.216,323.341,689.657-63.44,689.657-63.44" transform="translate(2918.699 -8095.274) rotate(-11)" fill="none" stroke="#4a7729" stroke-linecap="round" stroke-width="12"></path><g transform="translate(111.595 -491)"><path d="M61.25,0A61.25,61.25,0,1,1,0,61.25,61.25,61.25,0,0,1,61.25,0Z" transform="translate(165.333 491.298)" fill="#d0df00"></path><g transform="translate(121.286 510.882)"><g transform="translate(76)"><path d="M105.3,0A29.3,29.3,0,0,0,80.373,44.7l23.256,37.477a2.441,2.441,0,0,0,2.074,1.154h.019a2.441,2.441,0,0,0,2.075-1.187l22.663-37.84A29.3,29.3,0,0,0,105.3,0Zm20.974,41.8-20.6,34.4L84.523,42.13a24.43,24.43,0,1,1,41.748-.33Z" transform="translate(-76)" fill="#fff"></path></g><g transform="translate(90.648 14.648)"><path d="M180.648,90A14.648,14.648,0,1,0,195.3,104.648,14.665,14.665,0,0,0,180.648,90Zm0,24.447a9.8,9.8,0,1,1,9.782-9.8A9.806,9.806,0,0,1,180.648,114.447Z" transform="translate(-166 -90)" fill="#fff"></path></g></g></g></g></g></svg>