<svg xmlns="http://www.w3.org/2000/svg" id="g2494" width="56.435" height="107.013" viewBox="0 0 56.435 107.013"><g id="g2500" transform="translate(0)"><path id="Path_950" data-name="Path 950" d="M49.365,1357.193a3.132,3.132,0,0,1-2.934-4.23l17.229-46.143H49.365a3.136,3.136,0,0,1-3.038-3.892l12.539-50.373a3.134,3.134,0,0,1,3.043-2.375H99.529a3.134,3.134,0,0,1,2.692,4.742l-15.985,26.82H99.529a3.136,3.136,0,0,1,2.54,4.976L51.9,1355.9A3.136,3.136,0,0,1,49.365,1357.193Zm4.014-56.64h14.8a3.133,3.133,0,0,1,2.934,4.23l-10.732,28.745,33-45.519H80.719a3.132,3.132,0,0,1-2.692-4.737l15.985-26.82H64.357Z" transform="translate(-46.231 -1250.18)" fill="#fff"></path></g></svg>