<svg xmlns="http://www.w3.org/2000/svg" id="Group_84" data-name="Group 84" width="100.408" height="100.408" viewBox="0 0 100.408 100.408"><path id="Path_960" data-name="Path 960" d="M91.362,1347.755a50.2,50.2,0,1,0,50.2,50.2A50.26,50.26,0,0,0,91.362,1347.755Zm0,93.8a43.6,43.6,0,1,1,43.6-43.6A43.644,43.644,0,0,1,91.362,1441.557Z" transform="translate(-41.158 -1347.755)" fill="#fff"></path><path id="Path_961" data-name="Path 961" d="M68.447,1384.935V1366.18a9.507,9.507,0,0,1,4.638,3.689,3.3,3.3,0,1,0,5.518-3.632,16.081,16.081,0,0,0-10.155-6.913v-5.249a3.3,3.3,0,1,0-6.605,0v5.24a16.115,16.115,0,0,0,0,31.549v18.758a9.481,9.481,0,0,1-4.633-3.692,3.3,3.3,0,1,0-5.518,3.636,16.06,16.06,0,0,0,10.151,6.909v5.248a3.3,3.3,0,1,0,6.605,0v-5.235a16.116,16.116,0,0,0,0-31.553Zm-12.821-9.848a9.512,9.512,0,0,1,6.215-8.907v17.814A9.509,9.509,0,0,1,55.626,1375.087Zm12.821,34.531V1391.8a9.49,9.49,0,0,1,0,17.814Z" transform="translate(-14.941 -1337.695)" fill="#fff"></path></svg>