<svg xmlns="http://www.w3.org/2000/svg" id="Group_83" data-name="Group 83" width="112.533" height="112.616" viewBox="0 0 112.533 112.616"><g id="g3817" transform="translate(0.217 63.654)"><path id="Path_951" data-name="Path 951" d="M58.233,1345.2a18.426,18.426,0,0,1-18.182-15.374,18.083,18.083,0,0,1,3.212-13.588,18.3,18.3,0,0,1,12.028-7.407L78.041,1305a3.3,3.3,0,0,1,1.1,6.506l-22.764,3.836-.022,0a11.776,11.776,0,0,0-7.741,4.755,11.522,11.522,0,0,0-2.046,8.664,11.811,11.811,0,0,0,11.672,9.839,12.333,12.333,0,0,0,1.9-.152l75.447-12.11a11.762,11.762,0,0,0,7.737-4.754,11.544,11.544,0,0,0,2.05-8.665,11.834,11.834,0,0,0-13.579-9.687l-11.646,1.872a3.3,3.3,0,0,1-1.045-6.515l11.646-1.873a18.44,18.44,0,0,1,21.134,15.14,18.081,18.081,0,0,1-3.212,13.587,18.307,18.307,0,0,1-12.041,7.412l-75.447,12.105A18.394,18.394,0,0,1,58.233,1345.2Z" transform="translate(-39.809 -1296.489)" fill="#fff"></path></g><g id="g3821" transform="translate(0.217 75.76)"><path id="Path_952" data-name="Path 952" d="M58.233,1335.891a18.426,18.426,0,0,1-18.182-15.374h0a18.083,18.083,0,0,1,3.212-13.588,18.471,18.471,0,0,1,33.175,7.728,18.1,18.1,0,0,1-3.207,13.588,18.5,18.5,0,0,1-15,7.646Zm.022-30.011a11.967,11.967,0,0,0-9.644,4.911,11.543,11.543,0,0,0-2.05,8.664h0a11.819,11.819,0,0,0,11.677,9.839,12.318,12.318,0,0,0,1.9-.152,11.769,11.769,0,0,0,7.737-4.755,11.552,11.552,0,0,0,2.05-8.664A11.814,11.814,0,0,0,58.255,1305.88Z" transform="translate(-39.809 -1299.282)" fill="#fff"></path></g><g id="g3825" transform="translate(15.088 90.53)"><path id="path3827" d="M43.287,1306.788a3.564,3.564,0,1,0,2.947-4.053,3.56,3.56,0,0,0-2.947,4.053" transform="translate(-43.24 -1302.69)" fill="#fff"></path></g><g id="g3829" transform="translate(0 63.9)"><path id="Path_953" data-name="Path 953" d="M44.318,1324.543a3.3,3.3,0,0,1-3.086-2.137,22.606,22.606,0,0,1-1.292-10.484,18.438,18.438,0,0,1,21.138-15.14l13.254,2.068a3.3,3.3,0,1,1-1.019,6.519L60.047,1303.3a11.834,11.834,0,0,0-13.592,9.687,16.462,16.462,0,0,0,.949,7.095,3.3,3.3,0,0,1-1.92,4.252A3.354,3.354,0,0,1,44.318,1324.543Z" transform="translate(-39.759 -1296.545)" fill="#fff"></path></g><g id="g3833" transform="translate(52.206 96.176)"><path id="Path_954" data-name="Path 954" d="M93.43,1320.432a18.42,18.42,0,0,1-2.947-.239l-35.905-5.768a3.3,3.3,0,0,1,1.049-6.515l35.9,5.769a11.827,11.827,0,0,0,13.575-9.687l6.514,1.062A18.426,18.426,0,0,1,93.43,1320.432Z" transform="translate(-51.804 -1303.992)" fill="#fff"></path></g><g id="g3837" transform="translate(88.107 85.298)"><path id="Path_955" data-name="Path 955" d="M65.812,1328.8a18.42,18.42,0,0,1-2.947-.239,3.3,3.3,0,1,1,1.045-6.514,11.858,11.858,0,0,0,13.575-9.687,14.767,14.767,0,0,0-.945-6.48,3.3,3.3,0,0,1,6.22-2.2c.585,1.647,1.868,5.886,1.24,9.743A18.426,18.426,0,0,1,65.812,1328.8Z" transform="translate(-60.087 -1301.482)" fill="#fff"></path></g><g id="g3841" transform="translate(26.656 0)"><path id="path3843" d="M45.956,1285.9a3.564,3.564,0,1,0,2.952-4.053,3.561,3.561,0,0,0-2.952,4.053" transform="translate(-45.909 -1281.802)" fill="#fff"></path></g><g id="g3845" transform="translate(89.529 17.732)"><path id="path3847" d="M60.462,1289.992a3.564,3.564,0,1,0,2.947-4.052,3.559,3.559,0,0,0-2.947,4.052" transform="translate(-60.415 -1285.894)" fill="#fff"></path></g><g id="g3849" transform="translate(25.797 0.175)"><path id="Path_956" data-name="Path 956" d="M76.068,1366.97a28.212,28.212,0,0,1-18.65-6.8,33.064,33.064,0,0,1-9.821-15.014,39.516,39.516,0,0,1-1.3-18.871,53.556,53.556,0,0,1,1.331-5.7,3.291,3.291,0,0,1,4.417-2.141l7.338,3a39.623,39.623,0,0,1-.121-9.691c.949-8.4,5.244-20.336,20.31-29.434a3.3,3.3,0,0,1,5,2.609c.009.139,1.049,14.33,8.7,23.639,4.573,5.569,7.442,9.3,9.505,13.072a30.82,30.82,0,0,1,3.8,13.2l0,.031a32.835,32.835,0,0,1-3.606,17.168,26.338,26.338,0,0,1-14.975,12.838A36.828,36.828,0,0,1,76.068,1366.97Zm-23-40.981c-.1.481-.191.949-.269,1.417h0c-1.842,10.679,1.647,21.568,8.894,27.739a21.433,21.433,0,0,0,10.376,4.881,27.735,27.735,0,0,0,13.779-1.391,19.626,19.626,0,0,0,11.286-9.683,26.122,26.122,0,0,0,2.848-13.657c-.589-8.17-3.714-12.673-11.82-22.542-5.83-7.1-8.356-16.188-9.431-21.91-7.607,5.791-11.945,13.055-12.916,21.65a31.263,31.263,0,0,0,1.274,13.237,3.3,3.3,0,0,1-4.334,4.226Zm-3.519.858Z" transform="translate(-45.711 -1281.842)" fill="#fff"></path></g><g id="g3853" transform="translate(40.347 41.452)"><path id="Path_957" data-name="Path 957" d="M64.91,1335.22a14.81,14.81,0,0,1-9.782-3.585c-4.707-4.009-6.913-10.666-5.756-17.376.178-1.031.594-2.6.641-2.778a3.31,3.31,0,0,1,2.384-2.414,3.179,3.179,0,0,1,3.151.949c.286.252,2.462,1.985,6.5.88,4.49-1.231,5.244-11.3,4.906-15.989a3.3,3.3,0,0,1,6.029-2.08c6.462,9.648,9.319,17.324,9.258,24.887a19.048,19.048,0,0,1-2.778,9.31,15.923,15.923,0,0,1-8.421,7.121A18.877,18.877,0,0,1,64.91,1335.22Zm-9.232-17.879a11.751,11.751,0,0,0,3.727,9.271c2.488,2.12,5.773,2.57,9.492,1.292,4.356-1.491,6.714-6.909,6.744-10.246.022-2.8-.381-6.523-2.9-12-1.049,4.767-3.463,10.1-8.95,11.6A14.841,14.841,0,0,1,55.678,1317.341Zm.707-4.148Z" transform="translate(-49.068 -1291.366)" fill="#fff"></path></g><g id="g3857" transform="translate(78.833 76.261)"><path id="Path_958" data-name="Path 958" d="M61.244,1310.314a3.3,3.3,0,0,1-.52-6.558l26.9-4.317a3.3,3.3,0,1,1,1.049,6.515l-26.907,4.317A3.064,3.064,0,0,1,61.244,1310.314Z" transform="translate(-57.947 -1299.397)" fill="#fff"></path></g><g id="g3861" transform="translate(12.825 35.814)"><path id="path3863" d="M42.765,1294.164a3.564,3.564,0,1,0,2.947-4.052,3.559,3.559,0,0,0-2.947,4.052" transform="translate(-42.718 -1290.065)" fill="#fff"></path></g></svg>