<svg xmlns="http://www.w3.org/2000/svg" width="93.489" height="93.494" viewBox="0 0 93.489 93.494"><path id="Path_1030" data-name="Path 1030" d="M132.918,1358.077l-10.463-10.463v-27.44a2.739,2.739,0,0,0-2.739-2.739H107.979a2.739,2.739,0,0,0-2.739,2.739V1330.4L94.8,1319.962a8.633,8.633,0,0,0-12.205,0l-38.116,38.115a8.625,8.625,0,0,0,7.529,14.615v28.164a10.084,10.084,0,0,0,10.073,10.073H79.9a2.739,2.739,0,0,0,2.739-2.739v-20.731H94.76v20.731a2.739,2.739,0,0,0,2.739,2.739h17.818a10.087,10.087,0,0,0,10.073-10.073v-28.164a8.649,8.649,0,0,0,1.426.122h0a8.634,8.634,0,0,0,6.1-14.737Zm-22.2-35.164h6.259v19.227l-6.259-6.258Zm4.6,82.537H100.238v-20.73a2.739,2.739,0,0,0-2.739-2.739H79.9a2.739,2.739,0,0,0-2.739,2.739v20.73H62.084a4.6,4.6,0,0,1-4.594-4.594v-31.376L88.7,1338.27l31.211,31.211v31.376a4.6,4.6,0,0,1-4.594,4.594Zm13.727-39.038a3.148,3.148,0,0,1-4.456,0h0l-33.95-33.95a2.739,2.739,0,0,0-3.875,0l-33.95,33.946v0a3.153,3.153,0,0,1-4.46-4.459l38.116-38.116a3.155,3.155,0,0,1,4.46,0l15.114,15.118,23,23A3.154,3.154,0,0,1,129.044,1366.412Z" transform="translate(-41.956 -1317.435)" fill="#fff"></path></svg>