<svg xmlns="http://www.w3.org/2000/svg" width="106.866" height="106.87" viewBox="0 0 106.866 106.87"><path id="Path_1031" data-name="Path 1031" d="M131.628,1408.971a53.087,53.087,0,0,0-37.782-15.651c-.1,0-.2,0-.308,0a53.429,53.429,0,1,0,38.09,15.646Zm4.82,17.542-10.55,8.811-10.047,1.617.928,21.194-5.57,14.415a5.388,5.388,0,0,1-5,3.424,3.329,3.329,0,0,1-3.294-2.782l-1.751-10.441s-10.32-12.713-10.467-12.865h6.012v-16.132l9.028-.893,11.156-10-6.943-8.53-.048-.056a6.544,6.544,0,0,1-.771-7.338l2.18-4.006a47.438,47.438,0,0,1,25.134,23.575Zm-73.4,17.112a31.076,31.076,0,0,1,27.4-27.64v9.188a21.865,21.865,0,0,0-18.23,18.452Zm42.068-25.3,3.151,3.871-5.184,4.642-6.376.633v-27.791a46.9,46.9,0,0,1,8.539,1.3l-1.617,2.969a12.846,12.846,0,0,0,1.487,14.372Zm-14.667,13.228v12.076H78.581A15.7,15.7,0,0,1,90.452,1431.548Zm0-31.84v9.982a37.229,37.229,0,0,0-33.69,33.933H46.784A47.3,47.3,0,0,1,90.452,1399.709ZM46.78,1449.886H59.8l-.667,9.54,5.461,9a4.81,4.81,0,0,1,.29,4.447l-3.541,8.041A47.046,47.046,0,0,1,46.78,1449.886Zm47.066,44.041a46.946,46.946,0,0,1-27.488-8.859l4.261-9.675a11.082,11.082,0,0,0-.667-10.22l-4.43-7.295.563-7.992H82.473a57.483,57.483,0,0,0,3.879,4.512l8.911,11.009,1.478,8.821a9.574,9.574,0,0,0,9.47,8.009,11.7,11.7,0,0,0,10.84-7.433l6.042-15.634-.741-16.934,6.237-1,10.277-8.582a47.18,47.18,0,0,1-45.02,61.273Z" transform="translate(-40.413 -1393.32)" fill="#fff"></path></svg>