<svg xmlns="http://www.w3.org/2000/svg" xmlns:xlink="http://www.w3.org/1999/xlink" width="1920" height="1260" viewBox="0 0 1920 1260"><defs><clipPath id="clip-path"><rect id="Rect&#xE1;ngulo_119" data-name="Rect&#xE1;ngulo 119" width="1920" height="1260" transform="translate(0 1810)" fill="#fff" stroke="#707070" stroke-width="1"></rect></clipPath><linearGradient id="linear-gradient" x1="0.452" y1="0.759" x2="0.978" y2="-0.435" gradientUnits="objectBoundingBox"><stop offset="0" stop-color="#4a7729"></stop><stop offset="1" stop-color="#d0df00"></stop></linearGradient><linearGradient id="linear-gradient-2" x1="1" y1="0.677" x2="-0.343" y2="0.64" gradientUnits="objectBoundingBox"><stop offset="0" stop-color="#d0df00"></stop><stop offset="1" stop-color="#4a7729"></stop></linearGradient></defs><g id="Enmascarar_grupo_49" data-name="Enmascarar grupo 49" transform="translate(0 -1810)" clip-path="url(#clip-path)"><g id="Grupo_370" data-name="Grupo 370" transform="translate(0 146)"><path id="Trazado_524" data-name="Trazado 524" d="M1045.668,390.917C719.184,268.168,338.18,297.564,36.641,466.836V1581.728H1981.347V410.894c-323.818,109.16-633.9,93.493-935.679-19.976" transform="translate(-48.994 1348.183)" fill="url(#linear-gradient)"></path><path id="Trazado_544" data-name="Trazado 544" d="M1320.737,175.96c-139.346-24.111-336.272-24.557-496-25.771-212.724-1.617-526.334,54.883-647,93.386l33,706.4h2073l-6-761.619c-64.183,16-111.891,12.547-176,23.01-115,17.488-224.191,12.55-327,16.107-87.854,3.04-188.509,30.593-268.412,25.568-94.123-5.92-41.773-16.569-129.588-31.763" transform="translate(-270.737 2504.771)" fill="#fff"></path><path id="Sustracci&#xF3;n_1" data-name="Sustracci&#xF3;n 1" d="M2003.542,1847.485h-.833V1730.03a1409.7,1409.7,0,0,1-451.167,74.031c-21.856,0-44.03-.513-65.906-1.526-21.767-1.008-43.826-2.538-65.565-4.547-21.644-2-43.557-4.53-65.132-7.519-21.487-2.976-43.223-6.489-64.605-10.44-21.3-3.937-42.832-8.415-63.986-13.311-21.086-4.88-42.374-10.308-63.275-16.133-20.844-5.809-41.862-12.17-62.47-18.9-20.563-6.721-41.28-14-61.573-21.627-66-24.813-136.607-43.8-209.871-56.429A1305.424,1305.424,0,0,0,608,1634.953c-26.6,0-53.583.8-80.187,2.385s-53.479,3.983-79.88,7.135c-26.45,3.158-53.066,7.147-79.111,11.856-26.139,4.726-52.342,10.294-77.879,16.548-25.676,6.288-51.308,13.425-76.184,21.212-25.056,7.843-49.962,16.539-74.027,25.846-24.278,9.389-48.3,19.635-71.407,30.451C45.982,1761.314,22.994,1773.1,1,1785.412V876.088c24.78-3.288,50.383-5.789,76.1-7.435,25.547-1.635,51.8-2.464,78.031-2.464a1361.931,1361.931,0,0,1,239.687,21.725,1400.28,1400.28,0,0,1,236.237,63.962c77.833,28.673,150.9,63.792,217.171,104.381,16.89,10.345,33.539,21.177,49.484,32.2,16.13,11.148,31.968,22.783,47.072,34.582,15.289,11.943,30.233,24.37,44.417,36.938,14.365,12.728,28.333,25.938,41.517,39.264,266.147,269.02,584.352,399.793,972.8,399.793h.028Zm0-402.774h0l-.012-665.226h.014Z" transform="translate(-1.002 1021.515)" fill="url(#linear-gradient-2)"></path><path id="Sustracci&#xF3;n_2" data-name="Sustracci&#xF3;n 2" d="M2003.542,1847.485h-.833V1730.03a1409.7,1409.7,0,0,1-451.167,74.031c-21.856,0-44.03-.513-65.906-1.526-21.767-1.008-43.826-2.538-65.565-4.547-21.644-2-43.557-4.53-65.132-7.519-21.487-2.976-43.223-6.489-64.605-10.44-21.3-3.937-42.832-8.415-63.986-13.311-21.086-4.88-42.374-10.308-63.275-16.133-20.844-5.809-41.862-12.17-62.47-18.9-20.563-6.721-41.28-14-61.573-21.627-66-24.813-136.607-43.8-209.871-56.429A1305.424,1305.424,0,0,0,608,1634.953c-26.6,0-53.583.8-80.187,2.385s-53.479,3.983-79.88,7.135c-26.45,3.158-53.066,7.147-79.111,11.856-26.139,4.726-52.342,10.294-77.879,16.548-25.676,6.288-51.308,13.425-76.184,21.212-25.056,7.843-49.962,16.539-74.027,25.846-24.278,9.389-48.3,19.635-71.407,30.451C45.982,1761.314,22.994,1773.1,1,1785.412V876.088c24.78-3.288,50.383-5.789,76.1-7.435,25.547-1.635,51.8-2.464,78.031-2.464a1361.931,1361.931,0,0,1,239.687,21.725,1400.28,1400.28,0,0,1,236.237,63.962c77.833,28.673,150.9,63.792,217.171,104.381,16.89,10.345,33.539,21.177,49.484,32.2,16.13,11.148,31.968,22.783,47.072,34.582,15.289,11.943,30.233,24.37,44.417,36.938,14.365,12.728,28.333,25.938,41.517,39.264,266.147,269.02,584.352,399.793,972.8,399.793h.028Zm0-402.774h0l-.012-665.226h.014Z" transform="translate(-1.002 1111.515)" fill="url(#linear-gradient-2)"></path></g></g></svg>