<svg xmlns="http://www.w3.org/2000/svg" xmlns:xlink="http://www.w3.org/1999/xlink" width="260" height="87.315" viewBox="0 0 260 87.315"><defs><clipPath id="clip-path"><path id="Path_7" data-name="Path 7" d="M319.677,252.872c-5.859,15.9-1.215,29.965-24.213,31.946a22.393,22.393,0,0,0,18.681,5.37c17.588-2.579,21.827-14.479,21.827-28.047,0-22.8,16.172-28.222,16.172-28.222s-.159-.005-.456-.005c-3.432,0-25.293.724-32.012,18.959" transform="translate(-295.464 -233.913)" fill="#fff"></path></clipPath><clipPath id="clip-path-2"><rect id="Rectangle_5" data-name="Rectangle 5" width="80.999" height="80.883" transform="translate(0 60.69) rotate(-48.527)" fill="#fff"></rect></clipPath><clipPath id="clip-path-3"><rect id="Rectangle_4" data-name="Rectangle 4" width="161.269" height="161.268" transform="translate(0 120.835) rotate(-48.527)" fill="#fff"></rect></clipPath><clipPath id="clip-path-4"><path id="Path_9" data-name="Path 9" d="M328.04,315.14c-19.781,11.4-32.576.133-32.576.133s11.842,22.181,32.681,18.586c16.727-2.886,26.609-13.933,39.827,4.955a22.288,22.288,0,0,0-4.682-18.832c-5.862-7.392-12.125-10.211-18.472-10.212-5.6,0-11.261,2.191-16.778,5.37" transform="translate(-295.464 -309.77)" fill="#fff"></path></clipPath><clipPath id="clip-path-5"><rect id="Rectangle_8" data-name="Rectangle 8" width="36.292" height="77.715" transform="translate(0 36.117) rotate(-84.364)" fill="#fff"></rect></clipPath><clipPath id="clip-path-6"><rect id="Rectangle_7" data-name="Rectangle 7" width="51.483" height="84.809" transform="translate(0 51.234) rotate(-84.364)" fill="#fff"></rect></clipPath><clipPath id="clip-path-7"><path id="Path_11" data-name="Path 11" d="M365.241,247.375c-6.556,16.491,1.651,26.1,13.424,32.888,19.782,11.4,16.4,28.09,16.4,28.09s13.326-21.326-.213-37.541c-10.867-13.014-25.394-16.033-15.614-36.9a22.353,22.353,0,0,0-14,13.462" transform="translate(-362.916 -233.913)" fill="#fff"></path></clipPath><clipPath id="clip-path-8"><rect id="Rectangle_11" data-name="Rectangle 11" width="75.301" height="88.098" transform="translate(0 30.071) rotate(-23.537)" fill="#fff"></rect></clipPath><clipPath id="clip-path-9"><rect id="Rectangle_10" data-name="Rectangle 10" width="139.81" height="143.236" transform="translate(0 55.832) rotate(-23.537)" fill="#fff"></rect></clipPath></defs><g id="Group_406" data-name="Group 406" transform="translate(-6772 -6832)"><g id="Group_405" data-name="Group 405" transform="translate(6482.227 6598.087)"><g id="Group_8" data-name="Group 8" transform="translate(292.18 233.913)"><g id="Group_7" data-name="Group 7" transform="translate(0)" clip-path="url(#clip-path)"><g id="Group_6" data-name="Group 6" transform="translate(-28.782 -28.126)"><g id="Group_5" data-name="Group 5"><g id="Group_4" data-name="Group 4" clip-path="url(#clip-path-2)"><g id="Group_3" data-name="Group 3" transform="translate(-56.695 -56.69)"><g id="Group_2" data-name="Group 2" clip-path="url(#clip-path-3)"><rect id="Rectangle_3" data-name="Rectangle 3" width="227.74" height="227.74" transform="translate(-0.029 -0.002)" fill="#fff"></rect></g></g></g></g></g></g></g><path id="Path_8" data-name="Path 8" d="M308.066,286.712a9.151,9.151,0,1,1-9.567-8.7,9.14,9.14,0,0,1,9.567,8.7" transform="translate(0 -17.694)" fill="#fff"></path><g id="Group_15" data-name="Group 15" transform="translate(293.18 278.327)"><g id="Group_14" data-name="Group 14" transform="translate(0 3)" clip-path="url(#clip-path-4)"><g id="Group_13" data-name="Group 13" transform="translate(-2.839 -7.353)"><g id="Group_12" data-name="Group 12"><g id="Group_11" data-name="Group 11" clip-path="url(#clip-path-5)"><g id="Group_10" data-name="Group 10" transform="translate(-4.276 -7.907)"><g id="Group_9" data-name="Group 9" clip-path="url(#clip-path-6)"><rect id="Rectangle_6" data-name="Rectangle 6" width="89.659" height="59.629" transform="translate(-0.084 -0.025)" fill="#fff"></rect></g></g></g></g></g></g></g><path id="Path_10" data-name="Path 10" d="M378.419,349.018a9.139,9.139,0,1,1-2.765,12.618,9.162,9.162,0,0,1,2.765-12.618" transform="translate(-33.884 -44.613)" fill="#fff"></path><g id="Group_22" data-name="Group 22" transform="translate(334.563 233.913)"><g id="Group_21" data-name="Group 21" transform="translate(0)" clip-path="url(#clip-path-7)"><g id="Group_20" data-name="Group 20" transform="translate(-31.485 -18.199)"><g id="Group_19" data-name="Group 19"><g id="Group_18" data-name="Group 18" clip-path="url(#clip-path-8)"><g id="Group_17" data-name="Group 17" transform="translate(-40.58 -38.156)"><g id="Group_16" data-name="Group 16" clip-path="url(#clip-path-9)"><rect id="Rectangle_9" data-name="Rectangle 9" width="185.497" height="187.221" transform="translate(-0.086 -0.013)" fill="#fff"></rect></g></g></g></g></g></g></g><path id="Path_12" data-name="Path 12" d="M397.333,257.037a9.137,9.137,0,1,1,12.332-3.92,9.124,9.124,0,0,1-12.332,3.92" transform="translate(-41.178 -2.358)" fill="#fff"></path><path id="Path_13" data-name="Path 13" d="M466.6,328.25c3.084,0,4.469-2.006,4.469-5.218,0-3.228-1.384-4.72-4.469-4.72h-5.384v9.938Zm-5.384,3.219v7.659H457.86V315.1H466.6c5.337,0,7.9,2.6,7.9,7.937s-2.567,8.437-7.9,8.437Z" transform="translate(-67.456 -32.58)" fill="#fff"></path><path id="Path_14" data-name="Path 14" d="M501.658,318.279h-5.617v9.01h5.649c3.268,0,4.376-1.838,4.376-4.61,0-2.974-1.426-4.4-4.408-4.4m.45,12.192h-6.068v8.658h-3.365V315.1h8.982c5.306,0,7.876,2.221,7.876,7.516,0,3.675-1.317,5.852-4.09,6.956l4.227,9.562h-3.715Z" transform="translate(-81.428 -32.58)" fill="#fff"></path><path id="Path_15" data-name="Path 15" d="M542.249,326.993c0-5.953-1.149-9.275-6.105-9.275s-6.11,3.291-6.11,9.275c0,6.028,1.113,9,6.11,9,5.028,0,6.105-2.842,6.105-9m-15.68,0c0-7.961,2.149-12.532,9.574-12.532s9.609,4.537,9.609,12.532c0,8.177-2.155,12.26-9.609,12.26-7.425,0-9.574-4.227-9.574-12.26" transform="translate(-95.03 -32.325)" fill="#fff"></path><path id="Path_16" data-name="Path 16" d="M566.194,315.1h5.658l6.207,19.254L584.3,315.1h5.584v24.033h-3.363V319.183h-.528l-6.164,19.04h-3.571l-6.183-19.04h-.518v19.945h-3.362Z" transform="translate(-110.932 -32.58)" fill="#fff"></path><rect id="Rectangle_12" data-name="Rectangle 12" width="3.366" height="24.033" transform="translate(484.606 282.515)" fill="#fff"></rect><path id="Path_17" data-name="Path 17" d="M638.854,326.474h6.7v11.945a62.229,62.229,0,0,1-7.873.835c-7.357,0-9.437-4.5-9.437-12.4,0-8.17,2.186-12.395,9.329-12.395a43.5,43.5,0,0,1,7.981.971l-.138,2.944a62.186,62.186,0,0,0-7.387-.622c-5.069,0-6.316,2.635-6.316,9.1,0,6.372,1.077,9.142,6.208,9.142a36.909,36.909,0,0,0,4.3-.383v-6.123h-3.368Z" transform="translate(-135.832 -32.325)" fill="#fff"></path><path id="Path_18" data-name="Path 18" d="M667.54,330.5h7.947l-3.095-12.289h-1.7Zm.591-15.409h6.9l6.1,23.993h-3.4l-1.559-5.361h-9.365l-1.493,5.4h-3.369Z" transform="translate(-149.361 -32.58)" fill="#fff"></path><path id="Path_19" data-name="Path 19" d="M712.745,318.247s-4.855-.585-6.868-.585c-3.122,0-4.716,1.038-4.716,3.356,0,2.569,1.423,3.12,5.511,4.121,4.9,1.28,6.834,2.567,6.834,6.787,0,5.089-3.114,7.267-7.973,7.267a59.8,59.8,0,0,1-7.323-.8l.348-3.046s4.475.588,6.936.588c3.124,0,4.648-1.073,4.648-3.908,0-2.281-1.211-3.013-4.959-3.88-5.1-1.18-7.42-2.6-7.42-7.06,0-4.542,3.117-6.684,8.112-6.684a53.716,53.716,0,0,1,7.152.8Z" transform="translate(-163.733 -32.304)" fill="#fff"></path><path id="Path_20" data-name="Path 20" d="M460.979,265.635v7.111h9.958v2.522h-9.958V285.72h-2.8V263.144h13.4v2.491Z" transform="translate(-67.583 -11.731)" fill="#fff"></path><path id="Path_21" data-name="Path 21" d="M494.625,286.145c-5.45,0-8.222-3.281-8.222-9.814V263.144h2.8v12.883c0,5.47,1.278,7.6,5.42,7.6,4.11,0,5.42-2.157,5.42-7.6V263.144h2.771v13.187c0,6.533-2.771,9.814-8.191,9.814" transform="translate(-78.91 -11.731)" fill="#fff"></path><path id="Path_22" data-name="Path 22" d="M534.03,285.72l-7.979-16.2c-.547-1.124-1.248-2.491-1.827-3.828h-.061c.092,1.488.153,3.129.153,4.709V285.72H521.7V263.144h4.02l7.887,15.769c.547,1.094,1.279,2.644,1.827,3.859h.061c-.122-1.792-.153-3.554-.153-4.953V263.144h2.679V285.72Z" transform="translate(-93.074 -11.731)" fill="#fff"></path><path id="Path_23" data-name="Path 23" d="M570.524,272.563c0-5.135-2.467-6.928-7.338-6.928H559.9v17.624h3.289c4.871,0,7.338-1.883,7.338-7.019Zm-7.095,13.157h-6.334V263.144h6.334c7.034,0,9.927,3.706,9.927,9.419v3.677c0,5.743-2.65,9.48-9.927,9.48" transform="translate(-107.28 -11.731)" fill="#fff"></path><path id="Path_24" data-name="Path 24" d="M596.894,269.191a27.306,27.306,0,0,1-.913-3.708h-.3a33.148,33.148,0,0,1-.914,3.708l-2.163,6.593h6.426Zm5.329,16.529-2.344-7.383h-8.1l-2.406,7.383h-2.832l7.4-22.576h3.867l7.4,22.576Z" transform="translate(-119.098 -11.731)" fill="#fff"></path><path id="Path_25" data-name="Path 25" d="M629.141,285.9c-5.176,0-9.134-1.914-9.134-9.844v-3.738c0-7.93,3.958-9.784,9.134-9.784a34.08,34.08,0,0,1,5.238.516v2.28c-1.4-.122-3.563-.3-5.238-.3-4.263,0-6.332,1.733-6.332,7.293v3.738c0,5.561,2.07,7.323,6.332,7.323,1.675,0,3.836-.152,5.238-.273v2.279a34,34,0,0,1-5.238.516" transform="translate(-132.528 -11.486)" fill="#fff"></path><rect id="Rectangle_13" data-name="Rectangle 13" width="2.802" height="22.576" transform="translate(505.048 251.413)" fill="#fff"></rect><path id="Path_26" data-name="Path 26" d="M669.777,257.673h-2.74l3.989-4.679h3.32Zm5.512,11.091c0-5.529-2.436-7.566-5.907-7.566s-5.907,2.037-5.907,7.566v3.221c0,5.53,2.436,7.6,5.907,7.6s5.907-2.066,5.907-7.6Zm-5.907,13.308c-5.632,0-8.738-3.646-8.738-10.087v-3.221c0-6.441,3.106-10.057,8.738-10.057s8.74,3.616,8.74,10.057v3.221c0,6.441-3.106,10.087-8.74,10.087" transform="translate(-148.835 -7.657)" fill="#fff"></path><path id="Path_27" data-name="Path 27" d="M708.778,285.72l-7.979-16.2c-.547-1.124-1.248-2.491-1.827-3.828h-.061c.092,1.488.153,3.129.153,4.709V285.72h-2.62V263.144h4.02l7.887,15.769c.547,1.094,1.279,2.644,1.827,3.859h.061c-.122-1.792-.153-3.554-.153-4.953V263.144h2.679V285.72Z" transform="translate(-163.203 -11.731)" fill="#fff"></path></g></g></svg>