<svg xmlns="http://www.w3.org/2000/svg" xmlns:xlink="http://www.w3.org/1999/xlink" width="327" height="114" viewBox="0 0 327 114"><defs><clipPath id="clip-Mesa_de_trabajo_2"><rect width="327" height="114"></rect></clipPath></defs><g id="Mesa_de_trabajo_2" data-name="Mesa de trabajo &#x2013; 2" clip-path="url(#clip-Mesa_de_trabajo_2)"><rect width="327" height="114" fill="#fff"></rect><g id="Page-1" transform="translate(20.002 20.003)"><g id="ccmmna" transform="translate(-0.003 -0.003)"><g id="Group-75" transform="translate(0 0)"><path id="Fill-14" d="M128.314,37.362h-3.505l-3.13,9.31-3.011-9.31H115l-1.373,14.116h3.352l.776-8.177,2.55,8.177h2.789l2.533-8.152.759,8.152H129.7Z" transform="translate(-26.972 -8.868)" fill="#001d34" fill-rule="evenodd"></path><path id="Fill-15" d="M141.489,41.959a8.051,8.051,0,0,0-4.606,1.493l1.058,1.979a6.276,6.276,0,0,1,3.07-.9,1.3,1.3,0,0,1,1.493,1.434v.57a9.647,9.647,0,0,0-1.373-.075c-3.412,0-4.768,1.493-4.768,3.271,0,2.1,1.4,3.095,3.326,3.095a3.849,3.849,0,0,0,3.207-1.468l.3,1.216h2.687V45.909c0-2.785-1.552-3.942-4.4-3.942Zm1.015,6.936a1.572,1.572,0,0,1-1.578,1.644c-.836,0-1.237-.369-1.237-.981,0-.981.819-1.233,1.834-1.233a4.632,4.632,0,0,1,.981.1Z" transform="translate(-32.368 -9.96)" fill="#001d34" fill-rule="evenodd"></path><path id="Fill-16" d="M161.611,51.808V42.2h-2.772l-.239,1.157a4.288,4.288,0,0,0-3.13-1.392c-2.951,0-4.546,2.231-4.546,5.6s1.7,5.1,4.341,5.1a3.844,3.844,0,0,0,3.087-1.392v.6c0,1.728-.716,2.231-2.294,2.231a14.308,14.308,0,0,1-3.147-.428l-.495,2.332a11.841,11.841,0,0,0,3.923.663c3.608,0,5.262-1.216,5.262-4.881Zm-3.386-2.625a2.487,2.487,0,0,1-1.817.805c-1.339,0-1.91-.965-1.91-2.608,0-1.8.674-2.667,1.834-2.667a2.777,2.777,0,0,1,1.893.822Z" transform="translate(-35.825 -9.962)" fill="#001d34" fill-rule="evenodd"></path><path id="Fill-17" d="M174.64,50.219l.2,1.258H177.8V37.362h-3.369v4.646a4.057,4.057,0,0,0-2.832-1.141c-2.431,0-4.486,1.8-4.486,5.452,0,3.414,1.433,5.41,4.341,5.41a3.792,3.792,0,0,0,3.173-1.51ZM172.627,49c-1.458,0-1.936-1.157-1.936-2.726,0-1.845.7-2.667,1.893-2.667a2.629,2.629,0,0,1,1.834.805v3.707A2.428,2.428,0,0,1,172.627,49Z" transform="translate(-39.668 -8.868)" fill="#001d34" fill-rule="evenodd"></path><path id="Fill-18" d="M184.732,45.434a6.276,6.276,0,0,1,3.07-.9c.981,0,1.493.47,1.493,1.434v.57a9.646,9.646,0,0,0-1.373-.075c-3.412,0-4.768,1.493-4.768,3.271,0,2.1,1.4,3.095,3.326,3.095a3.849,3.849,0,0,0,3.207-1.468l.3,1.216h2.7V45.912c0-2.785-1.552-3.942-4.4-3.942a8.051,8.051,0,0,0-4.606,1.493l1.058,1.979Zm4.563,3.472a1.572,1.572,0,0,1-1.578,1.644c-.836,0-1.237-.369-1.237-.981,0-.981.819-1.233,1.834-1.233a4.485,4.485,0,0,1,.972.1v.47Z" transform="translate(-43.475 -9.962)" fill="#001d34" fill-rule="evenodd"></path><path id="Fill-19" d="M201.627,37.362h-3.386V51.477h3.386Z" transform="translate(-47.056 -8.868)" fill="#001d34" fill-rule="evenodd"></path><path id="Fill-20" d="M213.721,49.434a7.546,7.546,0,0,1-3.113.763,2,2,0,0,1-2.175-1.862h6.5c.043-.235.06-1.174.06-1.468,0-3.3-1.731-4.9-4.8-4.9-3.292,0-5.339,2.156-5.339,5.51s1.953,5.351,5.3,5.351a7.93,7.93,0,0,0,4.444-1.317Zm-3.488-5c1.177,0,1.552.822,1.552,1.879h-3.352a1.826,1.826,0,0,1,1.791-1.879Z" transform="translate(-48.625 -9.962)" fill="#001d34" fill-rule="evenodd"></path><path id="Fill-21" d="M230.076,52.571v-7.1a3.149,3.149,0,0,0-3.369-3.506,4.589,4.589,0,0,0-3.369,1.468l-.3-1.233H220.25V52.571h3.386V45.534a2.487,2.487,0,0,1,1.731-.805c.853,0,1.313.512,1.313,1.82v6.014h3.386Z" transform="translate(-52.281 -9.962)" fill="#001d34" fill-rule="evenodd"></path><path id="Fill-22" d="M239.761,44.536a1.3,1.3,0,0,1,1.493,1.434v.57a9.645,9.645,0,0,0-1.373-.075c-3.412,0-4.768,1.493-4.768,3.271,0,2.1,1.4,3.095,3.326,3.095a3.849,3.849,0,0,0,3.207-1.468l.3,1.216h2.687V45.912c0-2.785-1.552-3.942-4.4-3.942a8.051,8.051,0,0,0-4.606,1.493l1.058,1.979a6.276,6.276,0,0,1,3.07-.9Zm1.493,4.37a1.572,1.572,0,0,1-1.578,1.644c-.836,0-1.237-.369-1.237-.981,0-.981.819-1.233,1.834-1.233a4.632,4.632,0,0,1,.981.1Z" transform="translate(-55.809 -9.962)" fill="#001d34" fill-rule="evenodd"></path><path id="Fill-23" d="M266.447,37.362l-3.122,9.31-3.011-9.31h-3.667l-1.382,14.116h3.352l.776-8.177,2.55,8.177h2.789l2.533-8.152.759,8.152h3.309l-1.373-14.116Z" transform="translate(-60.592 -8.868)" fill="#001d34" fill-rule="evenodd"></path><path id="Fill-24" d="M283.385,52.82a7.93,7.93,0,0,0,4.444-1.317l-.879-2.08a7.546,7.546,0,0,1-3.113.763,2,2,0,0,1-2.175-1.862h6.5c.043-.235.06-1.174.06-1.468,0-3.3-1.731-4.9-4.8-4.9-3.292,0-5.339,2.155-5.339,5.51S280.033,52.82,283.385,52.82Zm.077-8.387c1.177,0,1.552.822,1.552,1.879h-3.352a1.826,1.826,0,0,1,1.791-1.879Z" transform="translate(-66.008 -9.96)" fill="#001d34" fill-rule="evenodd"></path><path id="Fill-25" d="M300.477,50.219l.2,1.258h2.968V37.362h-3.369v4.646a4.057,4.057,0,0,0-2.832-1.141c-2.431,0-4.486,1.8-4.486,5.452,0,3.414,1.433,5.41,4.341,5.41a3.792,3.792,0,0,0,3.173-1.51ZM298.464,49c-1.458,0-1.936-1.157-1.936-2.726,0-1.845.7-2.667,1.893-2.667a2.63,2.63,0,0,1,1.834.805v3.707A2.428,2.428,0,0,1,298.464,49Z" transform="translate(-69.538 -8.868)" fill="#001d34" fill-rule="evenodd"></path><path id="Fill-26" d="M311.4,36.768c-1.092,0-1.953.545-1.953,1.627,0,1.023.878,1.568,1.953,1.568,1.16,0,1.97-.545,1.97-1.568C313.373,37.313,312.554,36.768,311.4,36.768Z" transform="translate(-73.454 -8.728)" fill="#001d34" fill-rule="evenodd"></path><path id="Fill-27" d="M313.1,42.278h-3.386V52.644H313.1Z" transform="translate(-73.517 -10.035)" fill="#001d34" fill-rule="evenodd"></path><path id="Fill-28" d="M322.017,41.956c-3.087,0-5.578,1.8-5.578,5.485s2.115,5.368,5.382,5.368,5.68-1.82,5.68-5.452-2.388-5.41-5.484-5.41Zm-.043,8.136c-1.177,0-1.97-.721-1.97-2.726,0-1.879.793-2.726,1.97-2.726s1.953.763,1.953,2.726S323.109,50.092,321.975,50.092Z" transform="translate(-75.113 -9.957)" fill="#001d34" fill-rule="evenodd"></path><path id="Fill-29" d="M348.341,42.278h-3.369l-2,7.137-1.97-7.137h-3.531l3.829,10.467-.077.277c-.3,1.023-.716,1.174-1.4,1.174a11.581,11.581,0,0,1-1.475-.117l-.239,2.315a10.232,10.232,0,0,0,2.209.252c2.653,0,3.25-1.468,4.384-4.546l3.625-9.821Z" transform="translate(-80.106 -10.035)" fill="#001d34" fill-rule="evenodd"></path><path id="Fill-30" d="M122.862,73.019,117.3,64.724h-3.07V78.839h3.463V70.721l5.6,8.119h3.053V64.724h-3.488Z" transform="translate(-27.115 -15.363)" fill="#001d34" fill-rule="evenodd"></path><path id="Fill-31" d="M138.06,69.329c-3.087,0-5.578,1.8-5.578,5.485s2.115,5.368,5.382,5.368,5.68-1.82,5.68-5.452-2.388-5.41-5.484-5.41Zm-.043,8.136c-1.177,0-1.97-.721-1.97-2.726,0-1.879.793-2.726,1.97-2.726s1.953.763,1.953,2.726S139.152,77.465,138.017,77.465Z" transform="translate(-31.447 -16.455)" fill="#001d34" fill-rule="evenodd"></path><path id="Fill-32" d="M152.156,70.948l-.358-1.392h-2.652V79.922h3.386V73.3a2.469,2.469,0,0,1,1.7-.923,3.236,3.236,0,0,1,1.075.159l.239-2.977a2.874,2.874,0,0,0-1.117-.235A2.8,2.8,0,0,0,152.156,70.948Z" transform="translate(-35.403 -16.455)" fill="#001d34" fill-rule="evenodd"></path><path id="Fill-33" d="M165.69,69.37a4.057,4.057,0,0,0-2.832-1.141c-2.431,0-4.486,1.8-4.486,5.452,0,3.414,1.433,5.41,4.35,5.41a3.792,3.792,0,0,0,3.173-1.51l.2,1.258h2.968V64.724H165.69Zm-.017,6.114a2.428,2.428,0,0,1-1.791.881c-1.458,0-1.936-1.157-1.936-2.726,0-1.845.7-2.667,1.893-2.667a2.63,2.63,0,0,1,1.834.805Z" transform="translate(-37.593 -15.363)" fill="#001d34" fill-rule="evenodd"></path><path id="Fill-34" d="M179.815,69.332c-3.292,0-5.339,2.156-5.339,5.51s1.953,5.351,5.3,5.351a7.93,7.93,0,0,0,4.444-1.317l-.878-2.08a7.546,7.546,0,0,1-3.113.763,2,2,0,0,1-2.175-1.862h6.5c.043-.235.06-1.174.06-1.468C184.617,70.934,182.886,69.332,179.815,69.332Zm-1.757,4.353a1.826,1.826,0,0,1,1.791-1.879c1.177,0,1.552.822,1.552,1.879h-3.343Z" transform="translate(-41.415 -16.457)" fill="#001d34" fill-rule="evenodd"></path><path id="Fill-35" d="M194.231,71.778a6.1,6.1,0,0,1,2.815,1l1.4-1.786a6.384,6.384,0,0,0-4.426-1.669c-2.67,0-4.384,1.317-4.384,3.388,0,1.879,1.134,2.726,3.326,3.237,1.475.352,1.791.545,1.791,1.057,0,.394-.3.663-1.058.663a6.824,6.824,0,0,1-3.249-1.233l-1.373,1.845a7.144,7.144,0,0,0,4.947,1.9c2.7,0,4.384-1.258,4.384-3.531,0-1.845-1.058-2.566-3.207-3.2-1.493-.428-2-.587-2-1.057,0-.428.358-.629,1.032-.629Z" transform="translate(-44.88 -16.455)" fill="#001d34" fill-rule="evenodd"></path><path id="Fill-36" d="M208.081,76.792c-.478,0-.7-.193-.7-.721V71.089H209.1V68.682h-1.714V65.6h-2.994l-.316,3.095-1.493.512v1.879h1.433v5.6a2.364,2.364,0,0,0,2.7,2.608,7.815,7.815,0,0,0,2.533-.411l-.3-2.231a3.233,3.233,0,0,1-.853.134Z" transform="translate(-48.086 -15.572)" fill="#001d34" fill-rule="evenodd"></path><path id="Fill-37" d="M217.772,69.332c-3.292,0-5.339,2.156-5.339,5.51s1.953,5.351,5.3,5.351a7.93,7.93,0,0,0,4.444-1.317L221.3,76.8a7.546,7.546,0,0,1-3.113.763,2,2,0,0,1-2.175-1.862h6.5c.043-.235.06-1.174.06-1.468C222.574,70.934,220.843,69.332,217.772,69.332Zm-1.757,4.353a1.826,1.826,0,0,1,1.791-1.879c1.177,0,1.552.822,1.552,1.879h-3.343Z" transform="translate(-50.425 -16.457)" fill="#001d34" fill-rule="evenodd"></path><path id="Fill-38" d="M237.272,64.724l-5.1,14.116h3.787l.793-2.583h4.589l.793,2.583h3.787l-5.126-14.116h-3.522Zm.4,8.605,1.356-4.646,1.373,4.646Z" transform="translate(-55.11 -15.363)" fill="#001d34" fill-rule="evenodd"></path><path id="Fill-39" d="M258.2,69.329A4.588,4.588,0,0,0,254.83,70.8l-.3-1.233h-2.789V79.931h3.386V72.894a2.506,2.506,0,0,1,1.731-.805c.81,0,1.313.512,1.313,1.82v6.014h3.386v-7.1a3.149,3.149,0,0,0-3.369-3.506Z" transform="translate(-59.756 -16.455)" fill="#001d34" fill-rule="evenodd"></path><path id="Fill-40" d="M271.727,76.792c-.478,0-.7-.193-.7-.721V71.089h1.714V68.682h-1.714V65.6h-2.994l-.316,3.095-1.493.512v1.879h1.433v5.6a2.361,2.361,0,0,0,2.687,2.608,7.815,7.815,0,0,0,2.533-.411l-.3-2.231A3.232,3.232,0,0,1,271.727,76.792Z" transform="translate(-63.194 -15.572)" fill="#001d34" fill-rule="evenodd"></path><path id="Fill-41" d="M278.523,64.13c-1.092,0-1.953.545-1.953,1.627,0,1.023.878,1.568,1.953,1.568,1.16,0,1.97-.545,1.97-1.568C280.494,64.675,279.675,64.13,278.523,64.13Z" transform="translate(-65.649 -15.222)" fill="#001d34" fill-rule="evenodd"></path><path id="Fill-42" d="M280.225,69.64h-3.386V80.006h3.386Z" transform="translate(-65.713 -16.53)" fill="#001d34" fill-rule="evenodd"></path><path id="Fill-43" d="M289.138,69.329c-3.087,0-5.578,1.8-5.578,5.485s2.115,5.368,5.382,5.368,5.68-1.82,5.68-5.452-2.388-5.41-5.484-5.41Zm-.043,8.136c-1.177,0-1.97-.721-1.97-2.726,0-1.879.793-2.726,1.97-2.726s1.953.763,1.953,2.726S290.23,77.465,289.1,77.465Z" transform="translate(-67.308 -16.455)" fill="#001d34" fill-rule="evenodd"></path><path id="Fill-44" d="M307.374,70.638a4.275,4.275,0,0,0-3.053-1.317c-2.567,0-4.623,1.8-4.623,5.452,0,3.414,1.433,5.393,4.486,5.393a3.825,3.825,0,0,0,2.789-1.1v4.781h3.412V69.556h-2.533ZM307,76.618a2.461,2.461,0,0,1-1.791.839c-1.458,0-1.936-1.157-1.936-2.726,0-1.845.7-2.667,1.893-2.667a2.647,2.647,0,0,1,1.834.805v3.749Z" transform="translate(-71.139 -16.455)" fill="#001d34" fill-rule="evenodd"></path><path id="Fill-45" d="M322.578,76.766a2.281,2.281,0,0,1-1.714.763c-.913,0-1.237-.587-1.237-1.627V69.629h-3.412v7.1c0,2.231,1.058,3.531,3.429,3.531a4.151,4.151,0,0,0,3.232-1.493L323.235,80h2.712V69.629h-3.369Z" transform="translate(-75.06 -16.528)" fill="#001d34" fill-rule="evenodd"></path><path id="Fill-46" d="M336.5,69.332c-3.292,0-5.339,2.156-5.339,5.51s1.953,5.351,5.3,5.351a7.93,7.93,0,0,0,4.444-1.317l-.878-2.08a7.546,7.546,0,0,1-3.113.763,2,2,0,0,1-2.175-1.862h6.5c.043-.235.06-1.174.06-1.468C341.3,70.934,339.566,69.332,336.5,69.332Zm-1.757,4.353a1.826,1.826,0,0,1,1.791-1.879c1.177,0,1.552.822,1.552,1.879h-3.343Z" transform="translate(-78.606 -16.457)" fill="#001d34" fill-rule="evenodd"></path><path id="Fill-47" d="M353,69.329a4.589,4.589,0,0,0-3.369,1.468l-.3-1.233h-2.789V79.931h3.386V72.894a2.506,2.506,0,0,1,1.731-.805c.81,0,1.313.512,1.313,1.82v6.014h3.386v-7.1a3.149,3.149,0,0,0-3.369-3.506Z" transform="translate(-82.259 -16.455)" fill="#001d34" fill-rule="evenodd"></path><path id="Fill-48" d="M348.715,66.725l1.458.545c.256-.57.435-.746.776-.746a24.14,24.14,0,0,0,2.567.646c1.194,0,1.612-.939,1.893-2.055l-1.4-.545c-.3.629-.435.746-.793.746-.64,0-1.535-.663-2.567-.663-.981,0-1.612.9-1.936,2.08Z" transform="translate(-82.774 -15.327)" fill="#001d34" fill-rule="evenodd"></path><path id="Fill-49" d="M367.076,69.329c-3.087,0-5.578,1.8-5.578,5.485s2.115,5.368,5.382,5.368,5.68-1.82,5.68-5.452-2.388-5.41-5.484-5.41Zm-.043,8.136c-1.177,0-1.97-.721-1.97-2.726,0-1.879.793-2.726,1.97-2.726s1.953.763,1.953,2.726S368.167,77.465,367.033,77.465Z" transform="translate(-85.808 -16.455)" fill="#001d34" fill-rule="evenodd"></path><path id="Fill-50" d="M118.917,24.543a6.186,6.186,0,0,0,4.537-1.845l-1.186-1.434a4.613,4.613,0,0,1-3.13,1.308c-1.808,0-2.951-1.308-2.951-3.925,0-2.457,1.058-3.883,2.84-3.883a1.976,1.976,0,0,1,2.149,2.021H123.4c-.128-2.684-1.987-3.992-4.392-3.992-3.429,0-5.194,2.541-5.194,5.863s1.638,5.879,5.1,5.879Z" transform="translate(-27.017 -3.037)" fill="#001d34" fill-rule="evenodd"></path><path id="Fill-51" d="M133.976,12.947l-1.109-1.308-2.5,2.256.947,1.04Z" transform="translate(-30.945 -2.763)" fill="#001d34" fill-rule="evenodd"></path><path id="Fill-52" d="M131.582,20.409c-2.9,0-3.864,1.308-3.864,2.634a2.33,2.33,0,0,0,2.61,2.441,3.008,3.008,0,0,0,2.661-1.325l.222,1.115h1.7v-5.46c0-2.164-1.237-3.061-3.352-3.061a5.755,5.755,0,0,0-3.446,1.2l.725,1.258a4.587,4.587,0,0,1,2.5-.788,1.265,1.265,0,0,1,1.441,1.417v.612a8.861,8.861,0,0,0-1.2-.067Zm1.2,1.669a1.859,1.859,0,0,1-1.8,1.862c-.751,0-1.151-.319-1.151-.931,0-.931.785-1.233,1.945-1.233a5.9,5.9,0,0,1,1.006.075v.226Z" transform="translate(-30.316 -3.976)" fill="#001d34" fill-rule="evenodd"></path><path id="Fill-53" d="M148.447,18.569c.819,0,1.041.5,1.041,1.359v5.359h2.132v-5.77c0-1.669-.691-2.743-2.354-2.743a3.627,3.627,0,0,0-2.7,1.25,2.034,2.034,0,0,0-2.055-1.25,3.319,3.319,0,0,0-2.567,1.275l-.179-1.09h-1.783v8.328h2.132V19.45a2.362,2.362,0,0,1,1.638-.881c.819,0,1,.554,1,1.417v5.3h2.115V19.425a2.407,2.407,0,0,1,1.569-.855Z" transform="translate(-33.228 -3.982)" fill="#001d34" fill-rule="evenodd"></path><path id="Fill-54" d="M161.419,20.409c-2.9,0-3.864,1.308-3.864,2.634a2.33,2.33,0,0,0,2.61,2.441,3.008,3.008,0,0,0,2.661-1.325l.222,1.115h1.7v-5.46c0-2.164-1.237-3.061-3.352-3.061a5.755,5.755,0,0,0-3.446,1.2l.725,1.258a4.587,4.587,0,0,1,2.5-.788,1.265,1.265,0,0,1,1.441,1.417v.612a8.861,8.861,0,0,0-1.2-.067Zm1.2,1.669a1.859,1.859,0,0,1-1.8,1.862c-.751,0-1.151-.319-1.151-.931,0-.931.785-1.233,1.945-1.233a5.9,5.9,0,0,1,1.006.075v.226Z" transform="translate(-37.399 -3.976)" fill="#001d34" fill-rule="evenodd"></path><path id="Fill-55" d="M171.967,19.766a2,2,0,0,1,1.51-1.023,2.762,2.762,0,0,1,.8.109l.162-1.912a2.346,2.346,0,0,0-.836-.176,2.29,2.29,0,0,0-1.876,1.384l-.2-1.2h-1.7v8.328h2.132v-5.51Z" transform="translate(-40.314 -3.979)" fill="#001d34" fill-rule="evenodd"></path><path id="Fill-56" d="M180.845,20.409c-2.9,0-3.864,1.308-3.864,2.634a2.33,2.33,0,0,0,2.61,2.441,3.008,3.008,0,0,0,2.661-1.325l.222,1.115h1.7v-5.46c0-2.164-1.237-3.061-3.352-3.061a5.755,5.755,0,0,0-3.446,1.2l.725,1.258a4.587,4.587,0,0,1,2.5-.788,1.265,1.265,0,0,1,1.441,1.417v.612a8.861,8.861,0,0,0-1.2-.067Zm1.2,1.669a1.859,1.859,0,0,1-1.8,1.862c-.751,0-1.151-.319-1.151-.931,0-.931.785-1.233,1.945-1.233a5.9,5.9,0,0,1,1.006.075v.226Z" transform="translate(-42.01 -3.976)" fill="#001d34" fill-rule="evenodd"></path><path id="Fill-57" d="M196.778,24.6a3.193,3.193,0,0,0,2.627-1.275l.111,1.074h1.893V13.046h-2.115v3.942a3.273,3.273,0,0,0-2.439-1.107c-2.055,0-3.557,1.56-3.557,4.386C193.3,22.934,194.424,24.6,196.778,24.6Zm.64-6.936a2.516,2.516,0,0,1,1.859.948v3.3a2.414,2.414,0,0,1-1.808.931c-1.458,0-1.928-1.2-1.928-2.6,0-1.736.725-2.566,1.876-2.566Z" transform="translate(-45.883 -3.097)" fill="#001d34" fill-rule="evenodd"></path><path id="Fill-58" d="M210.468,25.488a5.641,5.641,0,0,0,3.429-1.074l-.691-1.375a5.12,5.12,0,0,1-2.482.713,1.869,1.869,0,0,1-2.1-1.921h5.467c.017-.143.034-.839.034-1.023,0-2.7-1.3-4.034-3.642-4.034-2.516,0-4.1,1.736-4.1,4.412S207.918,25.488,210.468,25.488Zm.034-7.146c1.2,0,1.586.914,1.586,1.971h-3.446A1.927,1.927,0,0,1,210.5,18.343Z" transform="translate(-48.989 -3.982)" fill="#001d34" fill-rule="evenodd"></path><path id="Fill-59" d="M228.09,24.543a6.186,6.186,0,0,0,4.537-1.845l-1.186-1.434a4.613,4.613,0,0,1-3.13,1.308c-1.808,0-2.951-1.308-2.951-3.925,0-2.457,1.058-3.883,2.84-3.883a1.976,1.976,0,0,1,2.149,2.021h2.226c-.128-2.684-1.987-3.992-4.392-3.992-3.429,0-5.194,2.541-5.194,5.863s1.638,5.879,5.1,5.879Z" transform="translate(-52.931 -3.037)" fill="#001d34" fill-rule="evenodd"></path><path id="Fill-60" d="M240.988,25.486a4.035,4.035,0,0,0,4.3-4.37,3.973,3.973,0,0,0-4.188-4.353,4.028,4.028,0,0,0-4.23,4.4C236.869,24.043,238.455,25.486,240.988,25.486Zm.077-6.986c1.143,0,1.97.772,1.97,2.617s-.836,2.6-1.97,2.6-1.953-.738-1.953-2.6S239.931,18.5,241.065,18.5Z" transform="translate(-56.225 -3.979)" fill="#001d34" fill-rule="evenodd"></path><path id="Fill-61" d="M252.519,19.45a2.362,2.362,0,0,1,1.638-.881c.819,0,1,.554,1,1.417v5.3h2.115V19.425a2.385,2.385,0,0,1,1.569-.855c.819,0,1.041.5,1.041,1.359v5.359h2.132v-5.77c0-1.669-.691-2.743-2.354-2.743a3.627,3.627,0,0,0-2.7,1.25,2.034,2.034,0,0,0-2.055-1.25,3.319,3.319,0,0,0-2.567,1.275l-.179-1.09h-1.783v8.328h2.132V19.45Z" transform="translate(-59.432 -3.982)" fill="#001d34" fill-rule="evenodd"></path><path id="Fill-62" d="M272.123,25.488a5.641,5.641,0,0,0,3.429-1.074l-.691-1.375a5.12,5.12,0,0,1-2.482.713,1.869,1.869,0,0,1-2.1-1.921h5.467c.017-.143.034-.839.034-1.023,0-2.7-1.3-4.034-3.642-4.034-2.516,0-4.1,1.736-4.1,4.412S269.573,25.488,272.123,25.488Zm.034-7.146c1.2,0,1.586.914,1.586,1.971H270.3A1.927,1.927,0,0,1,272.157,18.343Z" transform="translate(-63.624 -3.982)" fill="#001d34" fill-rule="evenodd"></path><path id="Fill-63" d="M282.717,19.766a2,2,0,0,1,1.51-1.023,2.762,2.762,0,0,1,.8.109l.162-1.912a2.346,2.346,0,0,0-.836-.176,2.29,2.29,0,0,0-1.876,1.384l-.2-1.2h-1.7v8.328h2.132v-5.51Z" transform="translate(-66.602 -3.979)" fill="#001d34" fill-rule="evenodd"></path><path id="Fill-64" d="M291.8,25.486a5.463,5.463,0,0,0,3.5-1.183l-.785-1.325a4.708,4.708,0,0,1-2.405.755c-1.407,0-2.081-1.09-2.081-2.684,0-1.7.751-2.583,1.953-2.583a1.573,1.573,0,0,1,1.638,1.627H295.4a3.1,3.1,0,0,0-3.446-3.33,4.016,4.016,0,0,0-4.171,4.37c0,2.667,1.638,4.353,4.026,4.353Z" transform="translate(-68.312 -3.979)" fill="#001d34" fill-rule="evenodd"></path><path id="Fill-65" d="M302.216,17.016H300.1v8.328h2.115Z" transform="translate(-71.235 -4.039)" fill="#001d34" fill-rule="evenodd"></path><path id="Fill-66" d="M301.136,14.94c.751,0,1.279-.377,1.279-1.057s-.529-1.09-1.279-1.09c-.708,0-1.271.377-1.271,1.09S300.428,14.94,301.136,14.94Z" transform="translate(-71.179 -3.037)" fill="#001d34" fill-rule="evenodd"></path><path id="Fill-67" d="M309.71,16.763a4.019,4.019,0,0,0-4.23,4.4c0,2.877,1.586,4.319,4.119,4.319a4.006,4.006,0,0,0,4.3-4.37A3.973,3.973,0,0,0,309.71,16.763Zm-.034,6.953c-1.134,0-1.953-.738-1.953-2.6s.819-2.617,1.953-2.617,1.97.772,1.97,2.617S310.81,23.716,309.676,23.716Z" transform="translate(-72.511 -3.979)" fill="#001d34" fill-rule="evenodd"></path><path id="Fill-68" d="M331.149,24.4V13.046h-2.115v3.942a3.273,3.273,0,0,0-2.439-1.107c-2.055,0-3.557,1.56-3.557,4.386,0,2.667,1.126,4.336,3.48,4.336a3.193,3.193,0,0,0,2.627-1.275l.111,1.074Zm-2.132-2.491a2.414,2.414,0,0,1-1.808.931c-1.458,0-1.928-1.2-1.928-2.6,0-1.736.725-2.566,1.876-2.566a2.5,2.5,0,0,1,1.859.948v3.288Z" transform="translate(-76.679 -3.097)" fill="#001d34" fill-rule="evenodd"></path><path id="Fill-69" d="M340.208,25.488a5.641,5.641,0,0,0,3.429-1.074l-.691-1.375a5.12,5.12,0,0,1-2.482.713,1.869,1.869,0,0,1-2.1-1.921h5.467c.017-.143.034-.839.034-1.023,0-2.7-1.3-4.034-3.642-4.034-2.516,0-4.1,1.736-4.1,4.412S337.666,25.488,340.208,25.488Zm.034-7.146c1.2,0,1.586.914,1.586,1.971h-3.446A1.927,1.927,0,0,1,340.242,18.343Z" transform="translate(-79.785 -3.982)" fill="#001d34" fill-rule="evenodd"></path><path id="Fill-70" d="M350.87,13.046h-2.132V24.4h2.132Z" transform="translate(-82.779 -3.097)" fill="#001d34" fill-rule="evenodd"></path><path id="Fill-71" d="M62.054,66.9a1.7,1.7,0,0,0,1.706-1.677V16.552a3.559,3.559,0,0,0-1.859-3.12,3.684,3.684,0,0,0-3.684.075l-41.374,25a3.541,3.541,0,0,0-1.731,3.2,3.725,3.725,0,0,0,2,3.053L44.851,60.014l2.806,1.543a2.9,2.9,0,0,0,4.316-2.491v-23.1a2.9,2.9,0,0,0-4.418-2.432L27.128,45.881a.937.937,0,0,1-.938.017l-6.525-3.59a.9.9,0,0,1-.034-1.568l39.3-23.761a.926.926,0,0,1,1.407.772V65.2a1.689,1.689,0,0,0,1.7,1.677Z" transform="translate(-3.586 -3.08)" fill="#001d34" fill-rule="evenodd"></path><path id="Fill-72" d="M5.5,46.455a3.731,3.731,0,0,0-5.032,1.4A3.6,3.6,0,0,0,1.9,52.8a3.731,3.731,0,0,0,5.032-1.4A3.6,3.6,0,0,0,5.5,46.455Z" transform="translate(0 -10.917)" fill="#001d34" fill-rule="evenodd"></path><path id="Fill-73" d="M80.891,88.928a3.731,3.731,0,0,0-5.032,1.4,3.6,3.6,0,0,0,1.424,4.948,3.731,3.731,0,0,0,5.032-1.4A3.6,3.6,0,0,0,80.891,88.928Z" transform="translate(-17.895 -20.999)" fill="#001d34" fill-rule="evenodd"></path><path id="Fill-74" d="M82.021.463a3.731,3.731,0,0,0-5.032,1.4,3.6,3.6,0,0,0,1.424,4.948,3.731,3.731,0,0,0,5.032-1.4A3.6,3.6,0,0,0,82.021.463Z" transform="translate(-18.163 0)" fill="#001d34" fill-rule="evenodd"></path></g></g></g></g></svg>