<svg xmlns="http://www.w3.org/2000/svg" xmlns:xlink="http://www.w3.org/1999/xlink" width="1920" height="370" viewBox="0 0 1920 370"><defs><clipPath id="b"><rect width="1920" height="370"></rect></clipPath></defs><g id="a" clip-path="url(#b)"><rect width="1920" height="370" fill="#fff"></rect><g transform="translate(-33.808 -3295.947)"><path d="M-4432.629,7518.689s472.732-73.672,837,167.81,395.628,290.25,626.216,323.341,689.657-63.44,689.657-63.44" transform="translate(2807.196 -4792.214) rotate(-11)" fill="none" stroke="#00205b" stroke-linecap="round" stroke-width="12"></path><path d="M61.25,0A61.25,61.25,0,1,1,0,61.25,61.25,61.25,0,0,1,61.25,0Z" transform="translate(148.333 3307.528)" fill="#00205b"></path><path d="M96.188,0H65.161a3.786,3.786,0,0,0-3.78,3.781V57.866a3.785,3.785,0,0,0,3.78,3.781h38.005a3.784,3.784,0,0,0,3.78-3.781V11.69Zm.892,5.657,4.715,5.125H97.08Zm6.692,52.209a.609.609,0,0,1-.607.606h-38a.607.607,0,0,1-.605-.606V3.781a.6.6,0,0,1,.605-.6H93.9V12.37a1.588,1.588,0,0,0,1.589,1.585h8.279ZM70.156,16.885H97.114a1.189,1.189,0,1,1,0,2.379H70.156a1.189,1.189,0,1,1,0-2.379ZM98.3,26.066a1.19,1.19,0,0,1-1.189,1.189H70.156a1.189,1.189,0,1,1,0-2.379H97.114A1.19,1.19,0,0,1,98.3,26.066Zm0,7.731a1.19,1.19,0,0,1-1.189,1.189H70.156a1.189,1.189,0,1,1,0-2.379H97.114A1.19,1.19,0,0,1,98.3,33.8Zm0,7.862a1.19,1.19,0,0,1-1.189,1.189H70.156a1.189,1.189,0,0,1,0-2.379H97.114A1.19,1.19,0,0,1,98.3,41.66Z" transform="translate(125.419 3337.955)" fill="#fff"></path></g></g></svg>