<svg xmlns="http://www.w3.org/2000/svg" xmlns:xlink="http://www.w3.org/1999/xlink" width="1920" height="300" viewBox="0 0 1920 300"><defs><clipPath id="clip-Artboard_1"><rect width="1920" height="300"></rect></clipPath></defs><g id="Artboard_1" data-name="Artboard &#x2013; 1" clip-path="url(#clip-Artboard_1)"><rect width="1920" height="300" fill="#fff"></rect><g id="Group_398" data-name="Group 398" transform="translate(-1397.136 -3521.897)"><path id="Path_575" data-name="Path 575" d="M-4432.629,7518.689s472.732-73.672,837,167.81,379.81,288.076,626.216,323.341,689.657-63.44,689.657-63.44" transform="matrix(0.966, -0.259, 0.259, 0.966, 3589.485, -4718.424)" fill="none" stroke="#00b5e2" stroke-linecap="round" stroke-width="12"></path><g id="Group_397" data-name="Group 397" transform="translate(1379 3064.763)"><path id="Path_521" data-name="Path 521" d="M61.25,0A61.25,61.25,0,1,1,0,61.25,61.25,61.25,0,0,1,61.25,0Z" transform="translate(148.333 470)" fill="#4a7729"></path><g id="reading-book" transform="translate(179.808 493.575)"><path id="Path_35" data-name="Path 35" d="M100.981,46.037A6.987,6.987,0,0,0,95.4,39.2V31.668a2.093,2.093,0,0,0-2.827-1.959l-3.994,1.5a24.4,24.4,0,0,0-9.3-6.041,13.951,13.951,0,1,0-16.576,0,24.4,24.4,0,0,0-9.3,6.041l-3.994-1.5a2.093,2.093,0,0,0-2.827,1.959V39.2a6.976,6.976,0,0,0,0,13.67v8.092a2.093,2.093,0,0,0,1.358,1.959l22.321,8.37a2.116,2.116,0,0,0,1.469,0l22.321-8.37A2.093,2.093,0,0,0,95.4,60.964V52.872A6.987,6.987,0,0,0,100.981,46.037ZM61.222,13.951a9.765,9.765,0,1,1,9.765,9.765A9.776,9.776,0,0,1,61.222,13.951ZM70.988,27.9a20.2,20.2,0,0,1,13.239,4.938L70.988,37.8,57.749,32.839A20.2,20.2,0,0,1,70.988,27.9ZM45.179,46.037a2.793,2.793,0,0,1,2.79-2.79h1.4v5.58h-1.4A2.793,2.793,0,0,1,45.179,46.037Zm5.58,6.905a3.494,3.494,0,0,0,2.79-3.417V42.549a3.494,3.494,0,0,0-2.79-3.417V34.687l18.136,6.8V66.315l-18.136-6.8ZM73.08,66.315V41.488l18.136-6.8v4.444a3.494,3.494,0,0,0-2.79,3.417v6.975a3.494,3.494,0,0,0,2.79,3.417v6.572ZM94.006,48.827h-1.4v-5.58h1.4a2.79,2.79,0,1,1,0,5.58Z" transform="translate(-40.994 0)" fill="#fff"></path></g></g></g></g></svg>