<svg xmlns="http://www.w3.org/2000/svg" width="2164.876" height="520.818" viewBox="0 0 2164.876 520.818"><defs><style>.a{fill:#d0df00;}</style></defs><path class="a" d="M-2847.163,8023.362c-44.137,0-85.885-2.257-123.1-7.583-195.924-28.04-247.555-63.624-439.659-196.02-50.066-34.505-112.376-77.449-189.023-128.259-358.07-237.374-828.057-167.616-832.763-166.882a6,6,0,0,1-6.852-5.005,6,6,0,0,1,5-6.852c1.768-.276,68.633-10.217,170.494-10.217,171.864,0,443.445,28.271,670.746,178.954,76.737,50.871,139.1,93.848,189.2,128.38,190.275,131.136,241.415,166.381,434.55,194.022,242.489,34.706,683.081-62.373,687.5-63.357a6,6,0,0,1,7.161,4.552,6,6,0,0,1-4.552,7.161C-2282.218,7953.095-2601.115,8023.353-2847.163,8023.362Z" transform="translate(4438.63 -7502.544)"></path></svg>