<svg xmlns="http://www.w3.org/2000/svg" id="Layer_1" viewBox="0 0 237.26 237.26"><defs><style>      .cls-1 {        fill: #fff;      }      .cls-2 {        fill: #00a99d;      }    </style></defs><circle class="cls-2" cx="118.63" cy="118.63" r="118.63"></circle><path class="cls-1" d="M107.63,139.37c-11.81,0-23.25,0-34.69,0-2.03,0-4.06.06-6.08-.02-4.36-.18-6.55-4.11-4.47-7.97.29-.53.63-1.04.96-1.55,20.06-31.78,40.12-63.56,60.18-95.34.27-.43.54-.86.81-1.28,1.5-2.28,3.56-3.4,6.23-2.51,2.81.93,3.75,3.16,3.53,6.01-.53,6.87-1.02,13.75-1.54,20.62-.61,8.08-1.24,16.17-1.87,24.25-.2,2.56-.88,4.8-3.72,5.66-3.71,1.12-6.9-1.35-6.65-5.47.44-7.49,1.08-14.96,1.63-22.44.05-.69.1-1.37-.35-2.31-15.04,23.82-30.08,47.64-45.46,71.99h5.25c10.04,0,20.07,0,30.11,0,5.61,0,7.42,2.06,6.97,7.67-1.15,14.43-2.26,28.87-2.85,43.57,15.04-23.8,30.08-47.6,45.47-71.97-1.69,0-2.75,0-3.81,0-10.95,0-21.9.04-32.84-.02-4.66-.02-7.24-3.99-5.18-7.78,1.18-2.18,3.16-2.58,5.42-2.58,13.28.03,26.56.01,39.84.01,1.62,0,3.25.07,4.86-.02,2.42-.13,4.42.54,5.65,2.75,1.26,2.26.49,4.25-.79,6.24-3.39,5.28-6.72,10.61-10.07,15.92-16.77,26.55-33.54,53.1-50.32,79.64-.38.6-.76,1.2-1.15,1.79-1.45,2.2-3.47,3.15-6.01,2.34-2.67-.85-3.83-2.89-3.63-5.64.58-7.98,1.21-15.97,1.83-23.95.9-11.62,1.82-23.24,2.71-34.86.06-.79,0-1.59,0-2.77Z"></path></svg>