<svg xmlns="http://www.w3.org/2000/svg" id="Layer_1" viewBox="0 0 237.26 237.26"><defs><style>      .cls-1 {        fill: #fff;      }      .cls-2 {        fill: #00a99d;      }    </style></defs><circle class="cls-2" cx="118.63" cy="118.63" r="118.63"></circle><g><path class="cls-1" d="M75.08,212.83c-1.24-.7-2.39-1.46-2.55-3.09-.19-1.9.9-3.49,2.79-3.87.63-.12,1.28-.11,1.93-.11,27.42,0,54.83,0,82.25,0,.35,0,.7,0,1.06,0,1.96.09,3.34,1.05,3.69,2.67.39,1.76-.29,3.09-1.83,4-.19.11-.37.26-.55.39h-86.77Z"></path><path class="cls-1" d="M118.66,32.11c24.41,1.25,43.26,12.06,54.2,34.38,10.12,20.66,8.48,41.19-4.22,60.42-15.21,23.04-30.8,45.83-46.23,68.72-.36.54-.7,1.09-1.11,1.59-1.6,1.93-3.99,1.95-5.6.05-.42-.49-.76-1.05-1.12-1.58-15.63-23.19-31.32-46.33-46.85-69.58-7.41-11.1-10.59-23.45-9.77-36.78.94-15.17,6.81-28.22,17.44-39,9.43-9.57,20.91-15.41,34.28-17.33,2.9-.42,5.84-.58,9-.88ZM118.5,188.74c.53-.78.96-1.39,1.37-2.01,14.21-21.08,28.39-42.19,42.64-63.25,13.24-19.56,12.96-44.31-1.57-62.96-13.56-17.42-31.8-24.11-53.41-19.96-21.56,4.13-38.06,21.57-41.81,43.04-2.4,13.78.02,26.74,7.76,38.4,14.46,21.77,29.17,43.36,43.78,65.03.35.52.73,1.01,1.23,1.71Z"></path><path class="cls-1" d="M90.29,92.52c.3-10.96,5.04-19.49,14.71-24.74,9.66-5.25,19.4-4.61,28.8,1.06,1.95,1.17,2.54,3.23,1.52,4.97-.97,1.66-3.02,2.26-4.91,1.14-3.99-2.36-8.2-3.7-12.87-3.56-10.35.31-19.45,8.95-20.21,19.27-.81,11.01,6.64,20.89,17.12,22.73,13.06,2.28,24.49-6.82,25.21-20.09.02-.35.04-.71.1-1.05.39-2.04,1.96-3.35,3.79-3.17,1.9.19,3.19,1.67,3.17,3.79-.06,6.78-2.22,12.85-6.69,17.92-7.67,8.71-17.37,11.96-28.59,9.08-11.23-2.88-18.01-10.5-20.71-21.75-.22-.91-.34-1.85-.41-2.78-.07-.93-.02-1.88-.02-2.82Z"></path><path class="cls-1" d="M140.33,84.44c-1.86-.02-3.47-1.6-3.51-3.45-.03-1.91,1.64-3.59,3.57-3.56,1.96.02,3.54,1.68,3.48,3.63-.06,1.88-1.66,3.4-3.55,3.39Z"></path></g></svg>