<svg xmlns="http://www.w3.org/2000/svg" id="Layer_1" viewBox="0 0 237.26 237.26"><defs><style>      .cls-1 {        fill: #fff;      }      .cls-2 {        fill: #00a99d;      }    </style></defs><circle class="cls-2" cx="118.63" cy="118.63" r="118.63"></circle><g><path class="cls-1" d="M221.45,198.36c-2.21,2.67-3.2,2.88-6.36,1.3-6.95-3.47-13.92-6.92-20.84-10.45-1.24-.63-2.09-.54-3.25.22-35.24,23.29-82.93,8.81-99.21-30.13-.6-1.44-1.28-1.81-2.8-1.67-15.81,1.49-30.32-2.27-43.53-11.04-1.09-.72-1.89-.56-2.92-.04-7.11,3.6-14.26,7.14-21.38,10.73-1.63.82-3.21,1.12-4.66-.21-1.51-1.38-1.46-3-.58-4.76,3.62-7.18,7.17-14.4,10.81-21.56.59-1.16.59-1.95-.15-3.07C.01,87.4,22.75,33.27,70.05,24.12c30.98-6,62.01,10.42,74.65,39.56.64,1.48,1.37,1.96,2.95,1.91,10.26-.35,20.43.38,30.03,4.35,25.35,10.48,39.92,29.34,43.43,56.63.07.58.23,1.16.35,1.74v10.07c-.12.44-.31.88-.35,1.33-1,10.66-4.38,20.53-10.25,29.47-1.35,2.05-1.32,3.5-.24,5.55,3.71,7.03,7.24,14.15,10.84,21.24v2.42ZM27.09,145.9c.12.09.23.18.35.27,4.61-2.3,9.28-4.49,13.8-6.95,2.51-1.37,4.44-1.19,6.8.49,12.86,9.15,27.23,12.69,42.85,10.63,33.17-4.37,56.37-35.1,51.73-68.34-4.56-32.71-34.95-55.82-67.67-51.46C29.79,36.54,7.22,88.52,33.74,125.5c1.55,2.16,1.67,3.98.45,6.28-2.47,4.65-4.75,9.41-7.1,14.12ZM209.91,189.11c-2.65-5.31-4.95-10.12-7.44-14.82-1.19-2.25-1-4.04.5-6.1,6.51-8.92,10.22-18.96,11.16-29.95,2.13-25-11.49-48.7-34.09-59.6-10.09-4.87-20.75-6.5-32.01-5.82,4.6,18.43,2.5,35.93-7.28,52.19-9.76,16.25-24.14,26.46-42.52,31.21.16.45.27.83.42,1.19,10.54,25.21,39.36,40.48,66.19,35.15,8.95-1.78,17.16-5.2,24.5-10.62,1.78-1.32,3.44-1.52,5.38-.44,2.05,1.14,4.18,2.12,6.28,3.17,2.79,1.39,5.59,2.78,8.91,4.44Z"></path><path class="cls-1" d="M82.86,79.84c5.91.03,10.58,4.72,10.58,10.62,0,5.97-4.84,10.75-10.77,10.65-5.84-.1-10.6-4.96-10.53-10.75.07-5.84,4.88-10.55,10.73-10.52ZM82.88,94.01c1.94-.04,3.51-1.71,3.45-3.67-.06-1.87-1.62-3.42-3.48-3.45-1.93-.02-3.56,1.62-3.55,3.57,0,1.95,1.65,3.58,3.58,3.54Z"></path><path class="cls-1" d="M100.62,90.41c.01-5.88,4.73-10.57,10.63-10.58,5.85,0,10.65,4.73,10.69,10.57.04,5.89-4.88,10.77-10.77,10.7-5.89-.07-10.55-4.8-10.54-10.69ZM114.76,90.51c.03-1.96-1.57-3.61-3.5-3.62-1.86,0-3.43,1.52-3.51,3.41-.08,1.98,1.44,3.65,3.39,3.71,1.93.06,3.58-1.54,3.61-3.5Z"></path><path class="cls-1" d="M43.77,90.53c-.04-5.91,4.59-10.63,10.5-10.69,5.97-.06,10.81,4.72,10.78,10.65-.02,5.85-4.78,10.59-10.64,10.61-5.88.02-10.6-4.67-10.64-10.57ZM54.41,94.01c1.92-.02,3.57-1.71,3.52-3.63-.05-1.93-1.76-3.56-3.67-3.48-1.84.08-3.42,1.7-3.43,3.53-.01,1.92,1.67,3.6,3.58,3.58Z"></path><path class="cls-1" d="M143.29,132.96c.05-5.85,4.86-10.56,10.72-10.49,5.84.06,10.62,4.89,10.58,10.69-.04,5.83-4.84,10.59-10.68,10.58-5.98,0-10.68-4.78-10.63-10.78ZM153.99,129.55c-1.92-.05-3.57,1.58-3.59,3.54-.01,1.88,1.47,3.47,3.34,3.58,1.91.11,3.63-1.49,3.69-3.43.06-1.94-1.52-3.64-3.44-3.68Z"></path><path class="cls-1" d="M182.41,143.74c-5.88.03-10.63-4.63-10.72-10.51-.09-5.89,4.76-10.77,10.7-10.75,5.9.02,10.57,4.71,10.58,10.62,0,5.91-4.65,10.6-10.55,10.64ZM182.29,129.56c-1.93.04-3.55,1.75-3.49,3.67.06,1.86,1.66,3.42,3.51,3.45,1.9.02,3.6-1.66,3.59-3.57,0-1.92-1.71-3.58-3.62-3.54Z"></path></g></svg>