<svg xmlns="http://www.w3.org/2000/svg" id="Layer_1" viewBox="0 0 237.26 237.26"><defs><style>      .cls-1 {        fill: #fff;      }      .cls-2 {        fill: #00a99d;      }    </style></defs><circle class="cls-2" cx="118.63" cy="118.63" r="118.63"></circle><g><path class="cls-1" d="M215.34,116.76c-.67.71-1.24,1.56-2.03,2.11-1.62,1.14-3.63.69-5.79-1.15-7.77-6.61-15.53-13.22-23.29-19.83-21.47-18.28-42.93-36.56-64.4-54.84-.33-.28-.69-.54-1.17-.92-.48.37-.98.73-1.44,1.13-29.09,24.77-58.17,49.55-87.29,74.27-1.08.92-2.56,1.6-3.95,1.86-1.61.3-2.84-.77-3.59-2.24-.72-1.42-.6-2.82.33-4.09.44-.6,1-1.13,1.57-1.62,30.22-25.76,60.45-51.52,90.69-77.27,2.87-2.44,4.51-2.4,7.46.11,8.66,7.4,17.33,14.79,26,22.18.37.32.78.59,1.37,1.05.05-.74.12-1.27.13-1.79,0-4.6-.02-9.19.01-13.79.02-3.41,1.68-5.09,5.12-5.12,5.98-.04,11.96-.04,17.94,0,3.58.02,5.3,1.79,5.3,5.38.01,12.65.03,25.31-.03,37.96,0,1.27.41,2.05,1.35,2.85,11.03,9.37,22.05,18.76,33.02,28.21,1.06.91,1.81,2.19,2.7,3.29v2.27ZM169.83,74.59v-29.26h-11.31c-.1.21-.2.32-.2.43-.02,6.11-.04,12.21-.02,18.32,0,.43.26.99.59,1.27,3.53,3.03,7.1,6.01,10.94,9.25Z"></path><path class="cls-1" d="M184.87,122.49v2.76c0,24.49,0,48.97,0,73.46,0,.88,0,1.77-.14,2.63-.32,1.87-1.49,3.03-3.33,3.4-.85.17-1.75.15-2.63.15-40.1,0-80.19,0-120.29,0-.82,0-1.64,0-2.45-.12-1.83-.27-3.21-1.62-3.51-3.45-.14-.86-.15-1.75-.15-2.63,0-24.49,0-48.97,0-73.46,0-.74,0-1.48,0-2.72-1.94,1.65-3.48,3.07-5.13,4.34-2.55,1.97-5.88,1-6.68-1.93-.55-2.01.35-3.53,1.85-4.8,4.07-3.47,8.13-6.96,12.19-10.43,19.76-16.88,39.52-33.77,59.29-50.65.29-.25.58-.49.86-.73,3.19-2.69,4.64-2.69,7.88.07,13.4,11.44,26.8,22.89,40.19,34.34,10.62,9.08,21.24,18.16,31.87,27.22,1.54,1.31,2.58,2.79,2.09,4.9-.69,2.93-4.06,4.03-6.62,2.1-1.7-1.28-3.26-2.74-5.28-4.45ZM176.49,196.43c.03-.72.08-1.27.08-1.83,0-25.88.02-51.76-.05-77.64,0-.9-.55-2.08-1.24-2.67-14.86-12.75-29.77-25.44-44.67-38.14-3.96-3.38-7.94-6.75-11.93-10.14-.52.42-.92.72-1.29,1.04-18.41,15.67-36.8,31.36-55.24,47-1.07.91-1.45,1.83-1.45,3.21.04,25.69.03,51.38.03,77.07,0,.67,0,1.34,0,2.07h32.93v-2.36c0-15.11,0-30.22,0-45.34,0-4.17,1.36-5.51,5.57-5.51,12.85,0,25.69,0,38.54,0,4.61,0,5.86,1.24,5.86,5.79,0,15.05,0,30.1,0,45.15,0,.74,0,1.47,0,2.3h32.86ZM135.14,196.45v-44.79h-33.02v44.79h33.02Z"></path></g></svg>